<?xml version="1.0" encoding="utf-8"?>
<!-- Generator: Adobe Illustrator 16.0.0, SVG Export Plug-In . SVG Version: 6.00 Build 0)  -->
<!DOCTYPE svg PUBLIC "-//W3C//DTD SVG 1.1//EN" "http://www.w3.org/Graphics/SVG/1.1/DTD/svg11.dtd">
<svg version="1.1" id="레이어_1" xmlns="http://www.w3.org/2000/svg" xmlns:xlink="http://www.w3.org/1999/xlink" x="0px"
	 y="0px" width="1000px" height="400px" viewBox="0 0 1000 400" enable-background="new 0 0 1000 400" xml:space="preserve">
<path fill="#040000" d="M400,370.001c0,16.568-13.432,30-30,30H30c-16.568,0-30-13.432-30-30V30C0,13.432,13.432,0,30,0h340
	c16.568,0,30,13.432,30,30V370.001z"/>
<path fill="#FFFFFF" d="M375,370.001c0,2.762-2.238,5-5,5H30c-2.761,0-5-2.238-5-5V30c0-2.761,2.239-5,5-5h340c2.762,0,5,2.239,5,5
	V370.001z"/>
<path fill="#040000" d="M200.002,62.502c21.026,0,125.068,117.758,124.998,176.517c-0.048,32.439-28.164,58.713-62.733,58.652
	c-28.615-0.057-44.135-12.342-58.496-36.891c14.361,51.051,43.644,76.719,43.644,76.719H152.58c0,0,29.266-25.668,43.646-76.719
	c-14.384,24.555-29.903,36.834-58.511,36.891c-34.577,0.061-62.667-26.213-62.714-58.648
	C74.914,180.262,178.977,62.502,200.002,62.502z"/>
<g>
	<path d="M684.924,64.801l-48.999,116.598c-0.2,0.6-0.601,1.4-1,1.8l-0.2,0.2c-0.199,0.4-0.6,0.8-1,1.2c0,0.4-0.199,0.4-0.199,0.6
		c-0.4,0.2-1,0.6-1.4,1h-0.2c-0.601,0.4-1,1-1.8,1.2h-0.2c0,0-0.2,0-0.2,0.2c-0.4,0-1,0.2-1.6,0.4c-0.2,0-0.4,0-0.4,0
		c-0.6,0.2-1.199,0.2-2,0.2c-0.6,0-1.199,0-1.8-0.2c-0.399,0-0.601,0-0.601,0c-0.6-0.2-1-0.4-1.399-0.4c-0.2-0.2-0.2-0.2-0.399-0.2
		c-0.801-0.2-1.4-0.8-1.801-1.2c-0.199,0-0.199,0-0.199,0c-0.601-0.4-1-0.8-1.4-1c-0.2-0.2-0.2-0.2-0.4-0.6
		c-0.199-0.4-0.6-0.8-0.8-1.2c-0.399,0-0.399-0.2-0.399-0.2c-0.4-0.4-0.601-1.2-0.801-1.8L589.525,119.4l-26.199,61.999
		c-0.2,0.6-0.601,1.4-0.801,1.8c-0.199,0-0.199,0.2-0.199,0.2c-0.4,0.4-0.801,0.8-1.2,1.2c0,0.4-0.2,0.4-0.2,0.6
		c-0.4,0.2-0.8,0.6-1.2,1c-0.399,0-0.399,0-0.399,0c-0.6,0.4-1.2,1-1.6,1.2c-0.201,0-0.201,0-0.201,0s-0.199,0-0.199,0.2
		c-0.801,0-1.2,0.2-1.6,0.4c-0.201,0-0.4,0-0.601,0c-0.601,0.2-1.2,0.2-1.8,0.2s-1.4,0-2-0.2c-0.2,0-0.4,0-0.6,0
		c-0.601-0.2-1-0.4-1.4-0.4c-0.2-0.2-0.2-0.2-0.4-0.2c-0.6-0.2-1.4-0.8-1.8-1.2c-0.2,0-0.2,0-0.2,0c-0.6-0.4-0.8-0.8-1.4-1
		c-0.199-0.2-0.199-0.2-0.399-0.6c-0.399-0.4-0.601-0.8-1-1.2v-0.2c-0.399-0.4-0.601-1.2-1-1.8L493.927,64.801
		c-2.2-5.4,0.2-12,6-14.2c5.399-2.4,12,0.2,14.2,5.8L553.326,149l25.799-61.399c1.801-4.4,6-6.8,10.4-6.8c4.199,0,8.4,2.4,10.4,6.8
		L625.725,149l39-92.599c2.399-5.6,8.799-8.2,14.6-5.8C684.725,52.801,687.324,59.401,684.924,64.801z"/>
	<path d="M682.727,138.2c0.201-27.2,21.4-50,48.8-50c26,0,46.6,19.4,48.199,46.399c0,0.2,0,0.6,0,1s0,1.4-0.2,1.8
		c-0.6,4.8-4.799,8-10.399,8h-63.599c1,4.6,3.199,9.8,6.799,13.2c4.201,4.8,12.201,8.4,19.2,9c7.2,0.6,15.8-1.2,20.8-5
		c4.2-4.4,12.4-3.8,15-0.6c2.6,2.8,4.6,8.8,0,13c-9.8,9-21.6,13.2-35.8,13.2C704.127,187.999,682.928,165.399,682.727,138.2z
		 M704.527,128.4h56.599c-2-8-12.2-19.799-29.6-21.199C714.527,108,706.127,120.2,704.527,128.4z"/>
	<path d="M795.526,138.4c0-0.2,0-0.2,0-0.2V59.001c0-5.8,4.8-10.8,10.8-10.8c6.2,0,11,5,11,10.8v37.6c7.399-5.2,17-8.4,26.8-8.4
		c26.999,0,48.599,22.8,48.599,50.199c0,27-21.6,49.799-48.599,49.799c-10,0-19.6-3.4-27.2-8.6c-1,4.8-5.199,8.6-10.6,8.6
		c-6,0-10.8-5-10.8-10.8V138.4z M817.326,138.4c0,7.6,3,14.8,8,19.8c5,5.2,11.399,8.2,18.8,8.2c7.199,0,13.8-3,18.8-8.2
		c5-5,8-12.2,8-19.8c0-8-3-15.2-8-20.2c-5-5.2-11.601-8.2-18.8-8.2c-7.4,0-13.8,3-18.8,8.2
		C820.326,123.2,817.326,130.4,817.326,138.4z"/>
	<path d="M544.603,215.201v117.998c0,6-5.2,11-11.2,11c-6.199,0-11-5-11-11V249l-28.799,40c-2.2,3-5.4,4.6-9,4.6h-0.2h-0.2
		c-3.6,0-7-1.6-9.2-4.6l-28.6-40v84.199c0,6-5,11-11.2,11c-6,0-11-5-11-11V215.201c0-6,5-11,11-11c0.2,0,0.2,0,0.6,0
		c3.2,0,6.8,1.6,8.8,4.6L484.403,264l39.8-55.199c2.199-3,5.4-4.6,9-4.6c0,0,0,0,0.199,0
		C539.402,204.401,544.603,209.201,544.603,215.201z"/>
	<path d="M596.604,219.201c0,6-4.601,11-10.801,11c-6,0-10.799-5-10.799-11v-4.2c0-5.999,4.799-10.8,10.799-10.8
		c6.2,0,10.801,4.801,10.801,10.8V219.201z M596.604,255.4v77.999c0,6-4.601,10.8-10.801,10.8c-6,0-10.799-4.8-10.799-10.8V255.4
		c0-6.4,4.799-11,10.799-11C592.003,244.4,596.604,249,596.604,255.4z"/>
	<path d="M704.4,294.8v37.199c0,26.2-21.4,48-48,48c-7.399,0-14.799-1.801-20.999-5c-5.2-2.4-7.601-9-4.8-14.4
		c2.6-5.399,8.8-7.399,14.399-5c3.399,1.801,7.2,2.801,11.399,2.801c13,0,23.6-9.2,26.2-21.4c-7.2,5-16.399,8-26.2,8
		c-13.199,0-25.398-5.8-33.999-15.199c-8.6-8.8-13.999-21.2-13.999-35.2c0-13.799,5.399-26.199,13.999-35.6
		c8.601-9,20.8-14.799,33.999-14.799c10.4,0,19.6,3.199,26.801,8.399c1-4.8,5.399-8.399,10.6-8.399c6,0,10.6,4.799,10.6,10.6V294.6
		V294.8z M683,294.6c0-8-3.199-15.6-7.6-20.399c-5.199-5.6-11.399-8.6-19-8.6c-7,0-13.6,3-18.399,8.6
		c-4.8,4.8-7.999,12.399-7.999,20.399c0,8.4,3.199,16,7.999,20.6c4.8,5.4,11.399,8.2,18.399,8.2c7.601,0,13.801-2.8,19-8.2
		C679.801,310.6,683,303,683,294.6z"/>
	<path d="M753.199,333.199c0,6.2-5,11-11.2,11c-5,0-9.2-3.6-10.601-8.2c-0.199-0.8-0.399-1.8-0.399-2.8V215.201c0-6.199,5-11,11-11
		c6.2,0,11.2,4.801,11.2,11V250c6.399-3.399,13.6-5.799,21.399-5.799c24.199,0,43.6,19.799,43.6,43.799v45.199c0,6.2-4.801,11-11,11
		c-6.2,0-11-4.8-11-11V288c0-11.8-9.601-21.399-21.6-21.6c-11.8,0.2-21.2,9.8-21.399,21.6V333.199z"/>
	<path d="M882.597,255.201c0,6-5.199,10.999-11.199,10.999h-5V322c6.2,0,11,4.999,11,11.199s-4.8,11-11,11
		c-12.2,0-22.2-10-22.2-22.199v-55.8h-5.8c-6.199,0-11-4.999-11-10.999c0-6.201,4.801-11,11-11h5.8v-29c0-6.199,5-11,11.2-11
		s11,4.801,11,11v29h5C877.397,244.201,882.597,249,882.597,255.201z"/>
	<path d="M976.995,254.801V302v28.399c0,26.8-21.2,47.799-47.8,47.799c-7.2,0-14.6-1.999-20.6-4.999c-5.6-2.4-7.6-8.601-5.2-14.2
		c2.601-4.8,9.4-7,14.2-4.4c3.8,1.801,7.6,2.801,11.6,2.801c11.8-0.2,21.8-7.8,25-18.2c-5.601,3.2-12.4,4.8-19,4.8
		c-23,0-41.8-18.999-41.8-41.999v-47.199c0-6,5-10.6,10.4-10.6c6.2,0,10.6,4.6,10.6,10.6V302c0,11.6,9.4,20.399,20.8,20.399
		s20.6-8.8,20.6-20.399v-47.199c0-6,4.4-10.6,10.399-10.6C971.995,244.201,976.995,248.801,976.995,254.801z"/>
</g>
</svg>
