<?xml version="1.0" encoding="utf-8"?>
<!-- Generator: Adobe Illustrator 16.0.0, SVG Export Plug-In . SVG Version: 6.00 Build 0)  -->
<!DOCTYPE svg PUBLIC "-//W3C//DTD SVG 1.1//EN" "http://www.w3.org/Graphics/SVG/1.1/DTD/svg11.dtd">
<svg version="1.1" id="레이어_1" xmlns="http://www.w3.org/2000/svg" xmlns:xlink="http://www.w3.org/1999/xlink" x="0px"
	 y="0px" width="655.634px" height="128.689px" viewBox="24.466 10.655 655.634 128.689"
	 enable-background="new 24.466 10.655 655.634 128.689" xml:space="preserve">
<g>
	<g>
		<path fill="#070001" d="M153.155,129.693c0,5.328-4.321,9.65-9.651,9.65H34.117c-5.33,0-9.651-4.322-9.651-9.65V20.307
			c0-5.331,4.321-9.652,9.651-9.652h109.386c5.33,0,9.651,4.321,9.651,9.652L153.155,129.693L153.155,129.693z"/>
		<path fill="#FFFFFF" d="M145.112,129.693c0,0.888-0.72,1.607-1.608,1.607H34.117c-0.888,0-1.608-0.721-1.608-1.607V20.307
			c0-0.889,0.72-1.609,1.608-1.609h109.386c0.889,0,1.608,0.72,1.608,1.609L145.112,129.693L145.112,129.693z"/>
		<path fill="#070001" d="M88.811,30.764c6.765,0,40.237,37.885,40.215,56.791c-0.016,10.436-9.061,18.889-20.183,18.868
			c-9.206-0.021-14.199-3.971-18.82-11.868c4.621,16.426,14.042,24.684,14.042,24.684H73.554c0,0,9.416-8.258,14.042-24.684
			c-4.628,7.899-9.62,11.852-18.825,11.868c-11.124,0.021-20.161-8.434-20.176-18.868C48.567,68.65,82.046,30.764,88.811,30.764z"/>
	</g>
	<g>
		<path fill="#040000" d="M264.278,47.494l-25.241,60.059c-0.104,0.311-0.308,0.723-0.517,0.93l-0.101,0.104
			c-0.104,0.207-0.31,0.412-0.515,0.617c0,0.205-0.104,0.205-0.104,0.31c-0.206,0.104-0.516,0.309-0.721,0.516h-0.103
			c-0.31,0.207-0.516,0.518-0.93,0.621h-0.101c0,0-0.103,0-0.103,0.102c-0.207,0-0.516,0.104-0.824,0.203c-0.103,0-0.207,0-0.207,0
			c-0.31,0.102-0.616,0.102-1.03,0.102c-0.31,0-0.618,0-0.927-0.102c-0.204,0-0.308,0-0.308,0c-0.312-0.1-0.516-0.203-0.723-0.203
			c-0.102-0.102-0.102-0.102-0.205-0.102c-0.412-0.104-0.721-0.414-0.928-0.621c-0.102,0-0.102,0-0.102,0
			c-0.309-0.207-0.515-0.412-0.72-0.516c-0.105-0.104-0.105-0.104-0.208-0.31c-0.1-0.205-0.308-0.41-0.41-0.617
			c-0.206,0-0.206-0.104-0.206-0.104c-0.208-0.207-0.31-0.619-0.413-0.93l-13.496-31.934l-13.496,31.934
			c-0.104,0.311-0.309,0.723-0.413,0.93c-0.104,0-0.104,0.104-0.104,0.104c-0.204,0.207-0.411,0.412-0.618,0.617
			c0,0.205-0.103,0.205-0.103,0.31c-0.205,0.104-0.413,0.309-0.62,0.516c-0.204,0-0.204,0-0.204,0
			c-0.309,0.207-0.616,0.518-0.824,0.621c-0.103,0-0.103,0-0.103,0s-0.102,0-0.102,0.102c-0.415,0-0.62,0.104-0.825,0.203
			c-0.103,0-0.206,0-0.311,0c-0.308,0.102-0.616,0.102-0.927,0.102c-0.308,0-0.721,0-1.029-0.102c-0.104,0-0.206,0-0.308,0
			c-0.311-0.1-0.516-0.203-0.721-0.203c-0.105-0.102-0.105-0.102-0.208-0.102c-0.309-0.104-0.721-0.414-0.928-0.621
			c-0.104,0-0.104,0-0.104,0c-0.308-0.207-0.412-0.412-0.72-0.516c-0.104-0.104-0.104-0.104-0.205-0.31
			c-0.207-0.205-0.311-0.41-0.517-0.617v-0.104c-0.206-0.207-0.311-0.619-0.514-0.93l-25.346-60.059
			c-1.132-2.78,0.105-6.181,3.091-7.314c2.781-1.235,6.181,0.103,7.314,2.99l20.191,47.696L209.78,59.24
			c0.928-2.267,3.089-3.502,5.357-3.502c2.162,0,4.326,1.235,5.356,3.502l13.291,31.625l20.088-47.696
			c1.237-2.887,4.533-4.225,7.521-2.99C264.174,41.313,265.513,44.714,264.278,47.494z"/>
		<path fill="#040000" d="M263.146,85.305c0.103-14.013,11.023-25.758,25.137-25.758c13.392,0,24.004,9.994,24.826,23.898
			c0,0.104,0,0.312,0,0.519s0,0.724-0.102,0.931c-0.309,2.471-2.471,4.116-5.356,4.116H274.89c0.516,2.371,1.648,5.052,3.503,6.802
			c2.164,2.471,6.285,4.326,9.89,4.635c3.708,0.311,8.139-0.615,10.714-2.572c2.166-2.27,6.389-1.959,7.727-0.311
			c1.338,1.44,2.367,4.531,0,6.696c-5.049,4.638-11.126,6.796-18.441,6.796C274.169,110.953,263.249,99.314,263.146,85.305z
			 M274.375,80.254h29.154c-1.031-4.119-6.284-10.197-15.248-10.92C279.525,69.747,275.199,76.033,274.375,80.254z"/>
		<path fill="#040000" d="M321.249,85.406c0-0.102,0-0.102,0-0.102V44.508c0-2.988,2.474-5.563,5.565-5.563
			c3.193,0,5.665,2.575,5.665,5.563v19.366c3.813-2.677,8.754-4.325,13.804-4.325c13.908,0,25.033,11.743,25.033,25.857
			c0,13.908-11.125,25.648-25.033,25.648c-5.153,0-10.095-1.746-14.009-4.427c-0.517,2.474-2.681,4.427-5.46,4.427
			c-3.092,0-5.565-2.572-5.565-5.56V85.406z M332.479,85.406c0,3.912,1.544,7.621,4.119,10.197c2.576,2.678,5.873,4.227,9.686,4.227
			c3.707,0,7.106-1.549,9.683-4.227c2.576-2.576,4.121-6.285,4.121-10.197c0-4.121-1.545-7.828-4.121-10.405
			c-2.576-2.677-5.976-4.226-9.683-4.226c-3.813,0-7.109,1.548-9.686,4.226C334.023,77.578,332.479,81.285,332.479,85.406z"/>
	</g>
	<g>
		<path fill="#040000" d="M457.369,45.388v60.788c0,3.086-2.683,5.662-5.771,5.662c-3.192,0-5.666-2.576-5.666-5.662V62.8
			l-14.832,20.604c-1.137,1.545-2.782,2.367-4.639,2.367h-0.102h-0.104c-1.854,0-3.606-0.822-4.74-2.367L406.787,62.8v43.376
			c0,3.086-2.576,5.662-5.77,5.662c-3.093,0-5.666-2.576-5.666-5.662V45.388c0-3.09,2.573-5.665,5.666-5.665
			c0.104,0,0.104,0,0.307,0c1.652,0,3.506,0.824,4.535,2.369l20.502,28.432l20.5-28.432c1.133-1.545,2.78-2.369,4.635-2.369
			c0,0,0,0,0.104,0C454.688,39.825,457.369,42.298,457.369,45.388z"/>
		<path fill="#040000" d="M484.156,47.448c0,3.093-2.369,5.667-5.563,5.667c-3.092,0-5.563-2.574-5.563-5.667v-2.164
			c0-3.09,2.471-5.562,5.563-5.562c3.193,0,5.563,2.472,5.563,5.562V47.448z M484.156,66.096v40.177
			c0,3.093-2.369,5.564-5.563,5.564c-3.092,0-5.563-2.473-5.563-5.564V66.096c0-3.296,2.471-5.666,5.563-5.666
			C481.787,60.43,484.156,62.8,484.156,66.096z"/>
		<path fill="#040000" d="M539.68,86.393v19.162c0,13.492-11.018,24.723-24.723,24.723c-3.809,0-7.621-0.928-10.814-2.571
			c-2.68-1.238-3.918-4.64-2.479-7.418c1.346-2.781,4.537-3.813,7.42-2.578c1.754,0.933,3.711,1.442,5.871,1.442
			c6.697,0,12.158-4.737,13.498-11.022c-3.711,2.576-8.447,4.119-13.498,4.119c-6.799,0-13.082-2.985-17.51-7.826
			c-4.435-4.534-7.214-10.924-7.214-18.133c0-7.108,2.779-13.494,7.214-18.339c4.428-4.638,10.711-7.62,17.51-7.62
			c5.354,0,10.098,1.644,13.807,4.324c0.517-2.474,2.781-4.324,5.459-4.324c3.095,0,5.459,2.47,5.459,5.459v20.5V86.393
			L539.68,86.393z M528.662,86.289c0-4.123-1.652-8.037-3.916-10.508c-2.68-2.885-5.873-4.432-9.789-4.432
			c-3.603,0-7.008,1.547-9.48,4.432c-2.467,2.473-4.114,6.385-4.114,10.508c0,4.326,1.647,8.242,4.114,10.611
			c2.479,2.779,5.88,4.223,9.48,4.223c3.916,0,7.109-1.443,9.789-4.223C527.01,94.531,528.662,90.615,528.662,86.289z"/>
		<path fill="#040000" d="M564.816,106.176c0,3.189-2.572,5.662-5.767,5.662c-2.576,0-4.74-1.855-5.463-4.225
			c-0.1-0.412-0.207-0.928-0.207-1.438V45.388c0-3.193,2.576-5.665,5.67-5.665c3.193,0,5.767,2.472,5.767,5.665v17.925
			c3.297-1.748,7.008-2.982,11.022-2.982c12.465,0,22.461,10.193,22.461,22.56v23.286c0,3.189-2.475,5.662-5.668,5.662
			c-3.19,0-5.662-2.473-5.662-5.662V82.889c0-6.08-4.947-11.022-11.131-11.125c-6.078,0.103-10.92,5.045-11.022,11.125V106.176z"/>
		<path fill="#040000" d="M631.471,65.992c0,3.094-2.676,5.667-5.768,5.667h-2.574V100.4c3.193,0,5.666,2.576,5.666,5.774
			c0,3.189-2.473,5.662-5.666,5.662c-6.283,0-11.436-5.151-11.436-11.438V71.659h-2.986c-3.191,0-5.666-2.573-5.666-5.667
			c0-3.192,2.475-5.662,5.666-5.662h2.986V45.388c0-3.193,2.575-5.665,5.77-5.665c3.195,0,5.666,2.472,5.666,5.665V60.33h2.574
			C628.795,60.33,631.471,62.8,631.471,65.992z"/>
		<path fill="#040000" d="M680.1,65.789v24.309v14.633c0,13.808-10.918,24.619-24.623,24.619c-3.709,0-7.521-1.031-10.61-2.574
			c-2.888-1.235-3.914-4.432-2.681-7.315c1.343-2.469,4.847-3.604,7.314-2.267c1.957,0.931,3.916,1.447,5.977,1.447
			c6.08-0.104,11.229-4.021,12.878-9.379c-2.884,1.65-6.386,2.473-9.787,2.473c-11.847,0-21.529-9.784-21.529-21.637V65.789
			c0-3.093,2.572-5.459,5.354-5.459c3.193,0,5.459,2.366,5.459,5.459v24.309c0,5.979,4.843,10.51,10.716,10.51
			s10.614-4.534,10.614-10.51V65.789c0-3.093,2.267-5.459,5.353-5.459C677.523,60.33,680.1,62.696,680.1,65.789z"/>
	</g>
</g>
</svg>
