<?xml version="1.0" standalone="no"?>
<!DOCTYPE svg PUBLIC "-//W3C//DTD SVG 20010904//EN"
 "http://www.w3.org/TR/2001/REC-SVG-20010904/DTD/svg10.dtd">
<svg version="1.0" xmlns="http://www.w3.org/2000/svg"
 width="700.000000pt" height="700.000000pt" viewBox="0 0 700.000000 700.000000"
 preserveAspectRatio="xMidYMid meet">
<metadata>
Created by potrace 1.11, written by Peter Selinger 2001-2013
</metadata>
<g transform="translate(0.000000,700.000000) scale(0.100000,-0.100000)"
fill="#000000" stroke="none">
<path d="M391 6984 c-176 -47 -330 -202 -376 -379 -13 -53 -15 -402 -15 -3105
0 -3361 -5 -3096 63 -3223 41 -77 137 -173 214 -214 127 -68 -138 -63 3223
-63 3361 0 3096 -5 3223 63 77 41 173 137 214 214 68 127 63 -138 63 3223 0
3361 5 3096 -63 3223 -41 77 -137 173 -214 214 -127 68 139 63 -3228 62 -2630
0 -3057 -2 -3104 -15z m6122 -435 c14 -6 30 -22 36 -36 16 -34 16 -5992 0
-6026 -6 -14 -22 -30 -36 -36 -34 -16 -5992 -16 -6026 0 -14 6 -30 22 -36 36
-16 34 -16 5992 0 6027 6 13 21 29 33 34 31 15 5996 16 6029 1z"/>
<path d="M3460 5901 c-55 -18 -133 -64 -232 -138 -116 -88 -499 -463 -654
-643 -657 -758 -1122 -1536 -1235 -2065 -74 -347 12 -666 246 -914 258 -273
633 -396 1028 -336 169 25 283 68 410 152 117 78 261 235 357 391 18 29 34 51
36 49 2 -2 -12 -53 -32 -113 -136 -413 -374 -826 -639 -1112 l-77 -82 832 0
832 0 -77 83 c-215 231 -427 569 -560 896 -48 118 -117 322 -111 328 2 2 18
-20 36 -49 18 -29 60 -89 94 -133 224 -296 487 -424 872 -425 494 -1 931 310
1062 755 89 301 25 641 -210 1109 -307 613 -829 1313 -1382 1854 -305 297
-497 424 -596 393z"/>
</g>
</svg>
