<?xml version="1.0" encoding="utf-8"?>
<!-- Generator: Adobe Illustrator 16.0.0, SVG Export Plug-In . SVG Version: 6.00 Build 0)  -->
<!DOCTYPE svg PUBLIC "-//W3C//DTD SVG 1.1//EN" "http://www.w3.org/Graphics/SVG/1.1/DTD/svg11.dtd">
<svg version="1.1"
	 id="svg2" xmlns:dc="http://purl.org/dc/elements/1.1/" xmlns:cc="http://creativecommons.org/ns#" xmlns:rdf="http://www.w3.org/1999/02/22-rdf-syntax-ns#" xmlns:svg="http://www.w3.org/2000/svg" xmlns:sodipodi="http://sodipodi.sourceforge.net/DTD/sodipodi-0.dtd" xmlns:inkscape="http://www.inkscape.org/namespaces/inkscape" inkscape:export-ydpi="215.44792" inkscape:export-xdpi="215.44792" inkscape:export-filename="/home/byron/art/cards/final/PNGs/A_of_hearts.png" sodipodi:docname="A_of_hearts.svg" inkscape:version="0.48.0 r9654"
	 xmlns="http://www.w3.org/2000/svg" xmlns:xlink="http://www.w3.org/1999/xlink" x="0px" y="0px" width="167.086px"
	 height="242.667px" viewBox="0 0 167.086 242.667" enable-background="new 0 0 167.086 242.667" xml:space="preserve">
<sodipodi:namedview  inkscape:cy="147.27218" inkscape:cx="72.124594" inkscape:zoom="1.7208768" showgrid="false" guidetolerance="10" gridtolerance="10" objecttolerance="10" borderopacity="1" bordercolor="#666666" pagecolor="#ffffff" id="namedview39" inkscape:current-layer="svg2" inkscape:window-maximized="1" inkscape:window-y="25" inkscape:window-x="0" inkscape:window-height="977" inkscape:window-width="1680" inkscape:pageshadow="2" inkscape:pageopacity="0">
	</sodipodi:namedview>
<g id="Layer_x0020_1">
	<path id="path5" fill="#FFFFFF" stroke="#000000" stroke-width="0.5" d="M166.836,235.548c0,3.777-3.086,6.869-6.871,6.869H7.111
		c-3.775,0-6.861-3.092-6.861-6.869V7.12c0-3.777,3.086-6.87,6.861-6.87h152.854c3.785,0,6.871,3.093,6.871,6.87V235.548z"/>
	<g id="g7">
		<g id="g9">
		</g>
	</g>
	<g id="g15">
	</g>
	<g id="g19">
	</g>
	<g id="g23">
		<g id="g25">
		</g>
	</g>
	<g id="g31">
		<g id="g33">
		</g>
	</g>
</g>
<text transform="matrix(1 0 0 1 6.2456 28.0137)" fill="#DF0000" font-family="'ArialMT'" font-size="32">A</text>
<g id="g3036" transform="matrix(0.19686979,0,0,0.19686979,11.54991,16.869674)">
	<g id="layer1-9" transform="matrix(34.670635,0,0,32.448413,363.65075,535.3979)">
		<path id="hl" sodipodi:nodetypes="scsscss" inkscape:connector-curvature="0" fill="#DF0000" d="M3.676-9C0.433-9,0-5.523,0-5.523
			S-0.433-9-3.676-9C-5.946-9-8-7.441-8-4.5C-8-0.614-1.421,3.294,0,9C1.352,3.299,8-0.614,8-4.5C8-7.441,5.946-9,3.676-9z"/>
	</g>
</g>
<g id="layer1-9-6" transform="matrix(1.6743072,0,0,1.5669921,17.177511,46.385321)">
	<path id="hl-8" sodipodi:nodetypes="scsscss" inkscape:connector-curvature="0" fill="#DF0000" d="M3.676-9
		C0.433-9,0-5.523,0-5.523S-0.433-9-3.676-9C-5.946-9-8-7.441-8-4.5C-8-0.614-1.421,3.294,0,9C1.352,3.299,8-0.614,8-4.5
		C8-7.441,5.946-9,3.676-9z"/>
</g>
<text transform="matrix(-1 0 0 -1 161.0883 213.5151)" fill="#DF0000" font-family="'ArialMT'" font-size="32">A</text>
<g id="layer1-9-6-5" transform="matrix(-1.6743072,0,0,-1.5669921,150.15601,195.14313)">
	<path id="hl-8-1" sodipodi:nodetypes="scsscss" inkscape:connector-curvature="0" fill="#DF0000" d="M3.676-9
		C0.433-9,0-5.523,0-5.523S-0.433-9-3.676-9C-5.946-9-8-7.441-8-4.5C-8-0.614-1.421,3.294,0,9C1.352,3.299,8-0.614,8-4.5
		C8-7.441,5.946-9,3.676-9z"/>
</g>
</svg>
