<?xml version="1.0" encoding="utf-8"?>
<!-- Generator: Adobe Illustrator 16.0.0, SVG Export Plug-In . SVG Version: 6.00 Build 0)  -->
<!DOCTYPE svg PUBLIC "-//W3C//DTD SVG 1.1//EN" "http://www.w3.org/Graphics/SVG/1.1/DTD/svg11.dtd">
<svg version="1.1"
	 id="svg2" xmlns:dc="http://purl.org/dc/elements/1.1/" xmlns:cc="http://creativecommons.org/ns#" xmlns:rdf="http://www.w3.org/1999/02/22-rdf-syntax-ns#" xmlns:svg="http://www.w3.org/2000/svg" xmlns:sodipodi="http://sodipodi.sourceforge.net/DTD/sodipodi-0.dtd" xmlns:inkscape="http://www.inkscape.org/namespaces/inkscape" inkscape:export-ydpi="215.44792" inkscape:export-xdpi="215.44792" inkscape:export-filename="/home/byron/art/cards/final/PNGs/A_of_clubs.png" sodipodi:docname="A_of_clubs.svg" inkscape:version="0.48.0 r9654"
	 xmlns="http://www.w3.org/2000/svg" xmlns:xlink="http://www.w3.org/1999/xlink" x="0px" y="0px" width="167.086px"
	 height="242.667px" viewBox="0 0 167.086 242.667" enable-background="new 0 0 167.086 242.667" xml:space="preserve">
<filter  height="1.3248404" width="1.2786888" y="-0.16242018" x="-0.13934441" id="filter3834-6" inkscape:collect="always" color-interpolation-filters="sRGB">
	<feGaussianBlur  stdDeviation="9.5105772" id="feGaussianBlur3836-6" inkscape:collect="always"></feGaussianBlur>
</filter>
<sodipodi:namedview  inkscape:cy="148.16686" inkscape:cx="188.71531" inkscape:zoom="2.4336873" showgrid="false" guidetolerance="10" gridtolerance="10" objecttolerance="10" borderopacity="1" bordercolor="#666666" pagecolor="#ffffff" id="namedview39" inkscape:current-layer="svg2" inkscape:window-maximized="1" inkscape:window-y="25" inkscape:window-x="0" inkscape:window-height="977" inkscape:window-width="1680" inkscape:pageshadow="2" inkscape:pageopacity="0">
	</sodipodi:namedview>
<g id="Layer_x0020_1">
	<path id="path5" fill="#FFFFFF" stroke="#000000" stroke-width="0.5" d="M166.836,235.548c0,3.777-3.086,6.869-6.871,6.869H7.111
		c-3.775,0-6.861-3.092-6.861-6.869V7.12c0-3.777,3.086-6.87,6.861-6.87h152.854c3.785,0,6.871,3.093,6.871,6.87V235.548z"/>
	<g id="g7">
		<g id="g9">
		</g>
	</g>
	<g id="g15">
	</g>
	<g id="g19">
	</g>
	<g id="g23">
		<g id="g25">
		</g>
	</g>
	<g id="g31">
		<g id="g33">
		</g>
	</g>
</g>
<text transform="matrix(1 0 0 1 6.7104 27.5488)" font-family="'ArialMT'" font-size="32">A</text>
<g id="g3804" transform="matrix(0.20614599,0,0,0.20614599,8.8705463,16.512759)">
	<g id="layer1-1" transform="matrix(28.969925,0,0,28.969925,-1031.5368,-187.37665)">
		<path id="cl" inkscape:connector-curvature="0" d="M50.292,22.698c0,0,2.375-1.9,2.375-4.534c0-1.542-1.369-4.102-4.534-4.102
			c-3.165,0-4.534,2.561-4.534,4.102c0,2.634,2.375,4.534,2.375,4.534c-2.638-2.055-7.341-0.652-7.341,3.455
			c0,2.056,1.68,4.318,4.318,4.318c3.165,0,4.534-3.455,4.534-3.455s0.402,3.938-1.943,6.046h5.182
			c-2.345-2.107-1.943-6.046-1.943-6.046s1.369,3.455,4.534,3.455c2.639,0,4.318-2.263,4.318-4.318
			C57.633,22.046,52.929,20.643,50.292,22.698z"/>
	</g>
	<g id="path3762-6" sodipodi:nodetypes="cscsc" inkscape:connector-curvature="0" filter="url(#filter3834-6)">
		
			<radialGradient id="SVGID_1_" cx="2824.6113" cy="-9997.3066" r="81.9028" gradientTransform="matrix(0.2636 -0.1677 -0.0903 -0.1681 -1345.8192 -935.3122)" gradientUnits="userSpaceOnUse">
			<stop  offset="0" style="stop-color:#FFFFFF;stop-opacity:0.5191"/>
			<stop  offset="1" style="stop-color:#000000;stop-opacity:0"/>
		</radialGradient>
		<path fill="url(#SVGID_1_)" d="M247.355,397.186c0,0-8.949-114.622,25.351-148.311c38.554-37.867,155.279-13.795,155.279-13.795
			s-79.351,29.982-110.915,58.633C286.892,321.106,247.355,397.186,247.355,397.186z"/>
	</g>
</g>
<g id="layer1-1-4" transform="matrix(1.4856506,0,0,1.4856506,-54.024661,10.018072)">
	<path id="cl-9" inkscape:connector-curvature="0" d="M50.292,22.698c0,0,2.375-1.9,2.375-4.534c0-1.542-1.369-4.102-4.534-4.102
		c-3.165,0-4.534,2.561-4.534,4.102c0,2.634,2.375,4.534,2.375,4.534c-2.638-2.055-7.341-0.652-7.341,3.455
		c0,2.056,1.68,4.318,4.318,4.318c3.165,0,4.534-3.455,4.534-3.455s0.402,3.938-1.943,6.046h5.182
		c-2.345-2.107-1.943-6.046-1.943-6.046s1.369,3.455,4.534,3.455c2.639,0,4.318-2.263,4.318-4.318
		C57.633,22.046,52.929,20.643,50.292,22.698z"/>
</g>
<text transform="matrix(-1 0 0 -1 160.4634 214.4663)" font-family="'ArialMT'" font-size="32">A</text>
<g id="layer1-1-4-1" transform="matrix(-1.4856506,0,0,-1.4856506,221.19916,232.46182)">
	<path id="cl-9-7" inkscape:connector-curvature="0" d="M50.292,22.699c0,0,2.374-1.9,2.374-4.534c0-1.542-1.369-4.102-4.534-4.102
		s-4.534,2.561-4.534,4.102c0,2.634,2.375,4.534,2.375,4.534c-2.638-2.055-7.341-0.652-7.341,3.455c0,2.056,1.68,4.317,4.319,4.317
		c3.164,0,4.534-3.455,4.534-3.455s0.402,3.939-1.943,6.046h5.182c-2.345-2.107-1.943-6.046-1.943-6.046s1.37,3.455,4.534,3.455
		c2.639,0,4.318-2.263,4.318-4.317C57.632,22.046,52.929,20.644,50.292,22.699z"/>
</g>
</svg>
