<?xml version="1.0" encoding="utf-8"?>
<!-- Generator: Adobe Illustrator 16.0.0, SVG Export Plug-In . SVG Version: 6.00 Build 0)  -->
<!DOCTYPE svg PUBLIC "-//W3C//DTD SVG 1.1//EN" "http://www.w3.org/Graphics/SVG/1.1/DTD/svg11.dtd">
<svg version="1.1"
	 id="svg2" xmlns:dc="http://purl.org/dc/elements/1.1/" xmlns:cc="http://creativecommons.org/ns#" xmlns:rdf="http://www.w3.org/1999/02/22-rdf-syntax-ns#" xmlns:svg="http://www.w3.org/2000/svg" xmlns:sodipodi="http://sodipodi.sourceforge.net/DTD/sodipodi-0.dtd" xmlns:inkscape="http://www.inkscape.org/namespaces/inkscape" inkscape:export-ydpi="215.44792" inkscape:export-xdpi="215.44792" inkscape:export-filename="/home/byron/art/cards/final/PNGs/A_of_clubs.png" sodipodi:docname="A_of_clubs.svg" inkscape:version="0.48.0 r9654"
	 xmlns="http://www.w3.org/2000/svg" xmlns:xlink="http://www.w3.org/1999/xlink" x="0px" y="0px" width="100px" height="100px"
	 viewBox="6.735 8.734 100 100" enable-background="new 6.735 8.734 100 100" xml:space="preserve">
<sodipodi:namedview  inkscape:cy="148.16686" inkscape:cx="188.71531" inkscape:zoom="2.4336873" showgrid="false" guidetolerance="10" gridtolerance="10" objecttolerance="10" borderopacity="1" bordercolor="#666666" pagecolor="#ffffff" id="namedview39" inkscape:current-layer="svg2" inkscape:window-maximized="1" inkscape:window-y="25" inkscape:window-x="0" inkscape:window-height="977" inkscape:window-width="1680" inkscape:pageshadow="2" inkscape:pageopacity="0">
	</sodipodi:namedview>
<g id="g3804" transform="matrix(0.20614599,0,0,0.20614599,8.8705463,16.512759)">
	<g id="layer1-1" transform="matrix(28.969925,0,0,28.969925,-1031.5368,-187.37665)">
		<path id="cl" inkscape:connector-curvature="0" d="M45.216,12.9c0,0,1.753-1.403,1.753-3.347c0-1.138-1.011-3.028-3.347-3.028
			c-2.336,0-3.347,1.89-3.347,3.028c0,1.944,1.753,3.347,1.753,3.347c-1.947-1.517-5.419-0.481-5.419,2.55
			c0,1.518,1.24,3.188,3.187,3.188c2.336,0,3.347-2.551,3.347-2.551s0.297,2.907-1.434,4.463h3.825
			c-1.731-1.555-1.434-4.463-1.434-4.463s1.011,2.551,3.347,2.551c1.948,0,3.187-1.671,3.187-3.188
			C50.635,12.419,47.162,11.383,45.216,12.9z"/>
	</g>
</g>
</svg>
