<?xml version="1.0" encoding="utf-8"?>
<!-- Generator: Adobe Illustrator 16.0.0, SVG Export Plug-In . SVG Version: 6.00 Build 0)  -->
<!DOCTYPE svg PUBLIC "-//W3C//DTD SVG 1.1//EN" "http://www.w3.org/Graphics/SVG/1.1/DTD/svg11.dtd">
<svg version="1.1"
	 id="svg2" xmlns:dc="http://purl.org/dc/elements/1.1/" xmlns:cc="http://creativecommons.org/ns#" xmlns:rdf="http://www.w3.org/1999/02/22-rdf-syntax-ns#" xmlns:svg="http://www.w3.org/2000/svg" xmlns:sodipodi="http://sodipodi.sourceforge.net/DTD/sodipodi-0.dtd" xmlns:inkscape="http://www.inkscape.org/namespaces/inkscape" inkscape:export-ydpi="215.44792" inkscape:export-xdpi="215.44792" inkscape:export-filename="/home/byron/art/cards/final/ace_of_spades2.png" sodipodi:docname="ace_of_spades2.svg" inkscape:version="0.48.0 r9654"
	 xmlns="http://www.w3.org/2000/svg" xmlns:xlink="http://www.w3.org/1999/xlink" x="0px" y="0px" width="100px" height="100px"
	 viewBox="0.734 11.735 100 100" enable-background="new 0.734 11.735 100 100" xml:space="preserve">
<sodipodi:namedview  inkscape:cy="144.37358" inkscape:cx="106.02254" inkscape:zoom="2.4336873" showgrid="false" guidetolerance="10" gridtolerance="10" objecttolerance="10" borderopacity="1" bordercolor="#666666" pagecolor="#ffffff" id="namedview39" inkscape:current-layer="svg2" inkscape:window-maximized="1" inkscape:window-y="25" inkscape:window-x="0" inkscape:window-height="977" inkscape:window-width="1680" inkscape:pageshadow="2" inkscape:pageopacity="0">
	</sodipodi:namedview>
<g id="g3886" transform="matrix(0.19861112,0,0,0.19861112,10.08352,15.428943)">
	<g id="layer1-7-1" transform="matrix(31.754082,0,0,29.033123,371.73772,526.70948)">
		<path id="sl-5" inkscape:connector-curvature="0" sodipodi:nodetypes="cccccccccc" fill="#BDBDBD" d="M0.378-7.921
			c-0.17-2.864-5.469-8.255-5.64-9.603c-0.171,1.347-5.469,6.738-5.64,9.603c-0.119,2.025,1.197,2.864,2.393,2.864
			c1.295-0.015,2.365-1.977,2.734-2.359c0.171,0.505-1.132,4.717-1.538,4.717h4.102c-0.406,0-1.709-4.212-1.538-4.717
			c0.323,0.35,1.268,2.3,2.735,2.359C-0.817-5.058,0.498-5.896,0.378-7.921z"/>
	</g>
</g>
</svg>
